<?xml version="1.0" standalone="no"?>
<!DOCTYPE svg PUBLIC "-//W3C//DTD SVG 20010904//EN"
 "http://www.w3.org/TR/2001/REC-SVG-20010904/DTD/svg10.dtd">
<svg version="1.0" xmlns="http://www.w3.org/2000/svg"
 width="852.000000pt" height="981.000000pt" viewBox="0 0 852.000000 981.000000"
 preserveAspectRatio="xMidYMid meet">

<g transform="translate(0.000000,981.000000) scale(0.100000,-0.100000)"
fill="#000000" stroke="none">
<path d="M8325 9659 c-2385 -1865 -4412 -3027 -6525 -3741 -515 -174 -1227
-371 -1687 -469 l-113 -23 0 -134 0 -133 33 6 c17 3 93 14 167 25 1838 276
4355 1270 6720 2653 447 262 1016 622 1395 884 l200 138 3 468 c1 257 -1 467
-5 467 -5 0 -89 -64 -188 -141z"/>
<path d="M8239 7967 c-362 -241 -698 -454 -1054 -669 -274 -165 -732 -430
-823 -477 l-42 -21 0 175 c0 96 -2 175 -5 175 -3 0 -68 -35 -143 -79 -336
-193 -921 -490 -1357 -691 -1189 -546 -2423 -974 -3555 -1234 -361 -83 -920
-185 -1207 -221 l-53 -7 0 -823 0 -824 53 5 c28 2 133 8 232 14 347 21 789 64
1170 116 206 27 689 102 718 110 16 5 17 -13 17 -275 0 -155 -3 -281 -7 -281
-5 0 -62 -9 -128 -19 -565 -92 -1313 -173 -1805 -196 -69 -3 -153 -8 -187 -11
l-63 -6 0 -139 0 -139 83 0 c232 0 913 34 1317 65 206 16 676 61 748 71 l42 6
-2 -273 -3 -274 -123 -12 c-572 -57 -1583 -123 -1887 -123 -55 0 -117 -3 -138
-6 l-37 -7 0 -131 0 -131 372 2 c560 4 1566 31 1761 48 l57 5 0 -284 0 -283
-107 -7 c-283 -16 -867 -28 -1445 -30 l-638 -1 0 -131 c0 -111 3 -133 16 -138
9 -3 501 -6 1095 -6 l1079 0 0 -254 0 -254 -28 -5 c-16 -3 -508 -9 -1095 -13
l-1067 -7 0 -139 0 -138 4260 0 4260 0 0 264 c0 146 -3 267 -7 269 -5 2 -44 1
-88 -4 -420 -41 -1577 -106 -2560 -144 -595 -22 -1661 -55 -1812 -55 l-73 0 0
180 0 180 -37 0 c-57 0 -1257 59 -1340 66 -72 6 -73 6 -73 33 l0 28 318 7
c2227 47 4364 203 5592 408 l75 13 3 384 c2 317 0 382 -11 378 -38 -14 -399
-113 -592 -161 -857 -214 -1906 -394 -3035 -520 -354 -40 -818 -86 -867 -86
l-33 0 0 200 0 200 -725 0 -725 0 0 35 0 35 50 0 c114 0 926 62 1305 100 1325
133 2442 316 3470 570 397 98 694 182 1133 321 l32 11 0 389 c0 214 -3 389 -6
389 -4 0 -88 -33 -188 -74 -1049 -430 -2442 -806 -3971 -1071 -176 -30 -332
-57 -347 -60 l-28 -4 0 198 0 199 -42 -5 c-64 -6 -1356 -93 -1384 -93 -19 0
-24 5 -24 25 0 28 -16 24 250 61 1864 255 3811 762 5511 1435 l229 90 0 410
c0 225 -2 409 -4 409 -1 0 -135 -65 -297 -144 -1067 -522 -2274 -979 -3549
-1345 -194 -55 -666 -181 -681 -181 -5 0 -9 69 -9 165 0 120 -3 165 -12 165
-20 0 -1360 -140 -1400 -146 -37 -6 -38 -5 -38 25 0 24 5 32 23 36 12 3 110
23 217 45 1266 262 2559 654 3800 1152 575 231 969 407 1533 685 l417 207 0
443 c0 244 -2 443 -5 443 -2 0 -125 -69 -272 -154 -363 -207 -734 -407 -1118
-601 -260 -130 -737 -361 -792 -382 -10 -4 -13 36 -13 182 0 174 -1 187 -17
182 -10 -3 -103 -46 -208 -95 -1291 -609 -2856 -1107 -4250 -1351 -66 -12
-130 -24 -143 -27 -20 -4 -23 -1 -20 17 3 20 24 27 223 74 2025 486 4498 1536
6457 2743 l158 97 0 453 c0 248 -1 452 -2 452 -2 0 -127 -83 -279 -183z"/>
</g>
</svg>
